<?xml version="1.0" standalone="no"?>
<!DOCTYPE svg PUBLIC "-//W3C//DTD SVG 20010904//EN"
 "http://www.w3.org/TR/2001/REC-SVG-20010904/DTD/svg10.dtd">
<svg version="1.0" xmlns="http://www.w3.org/2000/svg"
 width="1772.000000pt" height="1772.000000pt" viewBox="0 0 1772.000000 1772.000000"
 preserveAspectRatio="xMidYMid meet">
<metadata>
Created by potrace 1.11, written by Peter Selinger 2001-2013
</metadata>
<g transform="translate(0.000000,1772.000000) scale(0.100000,-0.100000)"
fill="#000000" stroke="none">
<path d="M8665 11040 c-213 -18 -438 -66 -636 -136 -121 -43 -359 -154 -442
-207 -31 -20 -60 -37 -63 -37 -14 0 -94 -62 -89 -70 3 -5 0 -12 -6 -16 -8 -4
-9 -3 -5 4 32 52 -174 -110 -322 -253 -159 -153 -352 -391 -336 -416 4 -7 3
-9 -3 -6 -22 14 -185 -285 -261 -478 -69 -175 -117 -358 -148 -565 -22 -145
-25 -520 -6 -660 81 -579 309 -1057 700 -1462 378 -392 848 -641 1391 -738 99
-17 157 -20 431 -20 294 0 326 2 459 25 242 44 503 133 721 246 113 59 333
199 346 220 4 7 -9 8 -42 3 -87 -14 -234 -7 -315 14 -65 18 -145 53 -219 97
-106 64 -220 234 -279 415 -24 76 -60 235 -61 269 0 3 -19 -29 -43 -71 -63
-117 -122 -194 -223 -293 -260 -257 -600 -407 -977 -434 -143 -10 -316 0 -427
24 -153 32 -349 116 -452 194 -65 48 -172 159 -221 227 -185 259 -216 774 -65
1068 82 159 209 298 363 399 291 189 755 321 1316 372 145 13 576 35 698 35
l43 0 -5 358 c-6 379 -11 432 -61 587 -37 115 -97 216 -181 304 -140 146 -326
226 -590 253 -94 10 -123 9 -203 -6 -117 -21 -186 -47 -262 -98 -104 -69 -148
-142 -271 -448 -53 -135 -63 -154 -110 -217 -73 -98 -172 -132 -310 -108 -172
29 -244 101 -270 265 -18 118 6 220 76 330 150 232 407 389 753 460 214 43
345 54 652 55 267 0 306 -2 415 -23 369 -71 623 -208 788 -428 128 -171 204
-362 244 -621 16 -97 17 -212 15 -1143 -3 -1225 0 -1281 71 -1429 53 -109 141
-151 244 -117 138 46 237 248 276 561 9 66 17 100 25 99 7 -1 60 -2 118 -2
l107 -2 -7 -92 c-4 -50 -13 -125 -21 -167 -8 -42 -15 -80 -15 -86 1 -19 108
155 163 263 102 198 177 404 221 606 45 205 48 242 44 606 -4 328 -6 351 -31
466 -54 247 -147 502 -254 697 -48 87 -196 314 -235 359 -13 15 -41 48 -63 75
-211 253 -517 492 -820 639 -354 171 -672 249 -1055 258 -96 3 -220 1 -275 -4z"/>
<path d="M9205 8529 c-686 -36 -968 -93 -1196 -245 -135 -89 -243 -242 -284
-399 -23 -87 -30 -264 -15 -381 45 -358 214 -580 495 -651 111 -27 312 -23
440 11 187 49 353 144 492 284 147 147 227 279 305 502 l43 125 3 383 3 382
-63 -1 c-35 -1 -135 -6 -223 -10z"/>
</g>
</svg>
